<?xml version="1.0" encoding="utf-8"?>
<svg xmlns="http://www.w3.org/2000/svg"
	xmlns:xlink="http://www.w3.org/1999/xlink"
	width="9px" height="9px" viewBox="0 0 9 9">
<clipPath id="clip0"><path fillRule="evenodd" d="M 4.57 0.95C 2.87 0.97 0.82 1.95 0.75 4.59 0.68 7.23 2.51 8.47 4.7 8.45 4.79 8.45 4.58 8.45 4.66 8.44 6.81 8.34 8.33 7.17 8.25 4.46 8.18 2.22 6.33 1.04 4.55 0.95 4.46 0.95 4.66 0.95 4.57 0.95Z"/></clipPath><path fillRule="evenodd" d="M 4.57 0.95C 2.87 0.97 0.82 1.95 0.75 4.59 0.68 7.23 2.51 8.47 4.7 8.45 4.79 8.45 4.58 8.45 4.66 8.44 6.81 8.34 8.33 7.17 8.25 4.46 8.18 2.22 6.33 1.04 4.55 0.95 4.46 0.95 4.66 0.95 4.57 0.95Z" fill="none" stroke="rgb(225,182,59)" stroke-width="4.00px" opacity="0.80" clip-path="url(#clip0)"/></svg>