<?xml version="1.0" encoding="utf-8"?>
<svg xmlns="http://www.w3.org/2000/svg"
	xmlns:xlink="http://www.w3.org/1999/xlink"
	width="142px" height="51px" viewBox="0 0 142 51">
<g><path fillRule="evenodd" d="M 30.36 5.56C 26.1 8.72 22.39 13.71 21.27 15.91 43.52 8.41 41.17 41.66 20.5 37.37 19.88 43.92 18.86 46.3 16.34 51.01 16.92 46.49 18.84 42.22 15.3 37.12 13.28 34.2 5.48 35.27 2.84 32.32-4.5 24.12 3.4 10.75 14.78 16.67 13.56 12.8 12.65 4.7 15.04 0.51 16.81 0.39 17.44 1.37 18.68 1.77 19.22 2.33 18.27 2.86 18.42 3.79 19.13 2.89 19.58 1.73 20.24 0.76 21.72 1.17 22.77 2.01 23.61 3.04 22.96 4.59 22.11 5.95 21.53 7.58 23.5 6.63 25.46 3.49 28.29 2.53 29.71 2.83 29.73 4.49 30.36 5.56" fill="rgb(160,37,75)"/><path fillRule="evenodd" d="M 140.82 14.5C 140.48 14.71 140.11 14.82 139.69 14.82 139.69 14.82 137.44 14.53 137.44 14.53 137.44 14.53 137.34 14.96 137.34 14.96 137.34 17.57 137.62 21.47 138.16 26.67 138.7 31.88 138.97 35.79 138.97 38.41 138.97 38.74 138.8 39.02 138.45 39.27 138.09 39.52 137.71 39.64 137.3 39.64 137.3 39.64 136.39 39.1 136.39 39.1 136.39 39.1 136.29 35.93 136.29 35.93 136.29 35.92 136.31 35.45 136.36 34.52 136.23 34.17 135.97 31.06 135.58 25.2 135.19 19.34 134.98 15.76 134.95 14.45 134.88 14.45 134.82 14.45 134.76 14.45 132.11 14.41 130.78 14 130.78 13.22 130.78 12.97 130.96 12.75 131.31 12.59 131.66 12.42 132 12.33 132.34 12.33 132.34 12.33 139 12.72 139 12.72 139 12.72 139.79 12.7 139.79 12.7 140.81 12.7 141.32 13.03 141.32 13.69 141.32 14.02 141.15 14.29 140.82 14.5ZM 122.18 40.53C 120.38 40.53 119 39.69 118.04 38.01 117.13 36.4 116.57 34.81 116.36 33.25 116.03 30.9 115.86 28.86 115.86 27.14 115.86 27.14 115.91 25.57 115.91 25.57 115.91 25.43 115.88 25.36 115.83 25.36 115.83 25.36 115.83 24.62 115.83 24.62 115.83 20.29 116.13 17.21 116.72 15.38 117.22 13.83 117.69 12.88 118.16 12.52 118.62 12.15 119.08 11.97 119.52 11.97 123.32 11.97 125.94 13.59 127.38 16.81 128.21 18.67 128.63 20.95 128.63 23.67 128.63 23.67 128.63 23.97 128.63 23.97 128.63 23.97 128.72 28.65 128.72 28.65 128.72 36.57 126.54 40.53 122.18 40.53ZM 125.44 34.44C 125.62 33.7 125.75 32.91 125.85 32.06 126.01 30.59 126.09 29.34 126.09 28.31 126.09 27.27 125.98 25.69 125.76 23.55 125.55 21.41 125.44 19.82 125.44 18.77 125.44 18.77 125.44 18.04 125.44 18.04 125.41 17.03 125.02 16.14 124.27 15.35 123.52 14.56 122.56 14.17 121.39 14.17 120.27 14.17 119.53 14.7 119.16 15.76 118.86 16.65 118.71 17.75 118.71 19.05 118.71 19.05 118.76 21.49 118.76 21.49 118.76 21.49 118.52 25.3 118.52 25.3 118.52 29.3 118.9 32.78 119.67 35.75 120.48 37.49 121.26 38.51 121.99 38.82 122.58 38.82 123.12 38.62 123.6 38.21 124.07 37.81 124.45 37.27 124.73 36.59 125.01 35.91 125.25 35.19 125.44 34.44ZM 106.59 40.53C 104.78 40.53 103.4 39.69 102.45 38.01 101.54 36.4 100.98 34.81 100.77 33.25 100.43 30.9 100.27 28.86 100.27 27.14 100.27 27.14 100.31 25.57 100.31 25.57 100.31 25.43 100.29 25.36 100.24 25.36 100.24 25.36 100.24 24.62 100.24 24.62 100.24 20.29 100.54 17.21 101.13 15.38 101.62 13.83 102.1 12.88 102.57 12.52 103.03 12.15 103.48 11.97 103.93 11.97 107.73 11.97 110.35 13.59 111.79 16.81 112.62 18.67 113.03 20.95 113.03 23.67 113.03 23.67 113.03 23.97 113.03 23.97 113.03 23.97 113.13 28.65 113.13 28.65 113.13 36.57 110.95 40.53 106.59 40.53ZM 109.85 34.44C 110.02 33.7 110.16 32.91 110.25 32.06 110.41 30.59 110.49 29.34 110.49 28.31 110.49 27.27 110.39 25.69 110.17 23.55 109.95 21.41 109.85 19.82 109.85 18.77 109.85 18.77 109.85 18.04 109.85 18.04 109.81 17.03 109.42 16.14 108.67 15.35 107.92 14.56 106.96 14.17 105.8 14.17 104.68 14.17 103.94 14.7 103.57 15.76 103.27 16.65 103.12 17.75 103.12 19.05 103.12 19.05 103.16 21.49 103.16 21.49 103.16 21.49 102.92 25.3 102.92 25.3 102.92 29.3 103.31 32.78 104.07 35.75 104.89 37.49 105.66 38.51 106.4 38.82 106.99 38.82 107.52 38.62 108 38.21 108.48 37.81 108.86 37.27 109.14 36.59 109.42 35.91 109.66 35.19 109.85 34.44ZM 97.42 40.47C 96.73 40.47 96.07 39.81 95.44 38.48 94.81 37.16 94.3 35.69 93.92 34.08 92.75 29.14 92.04 26.43 91.79 25.93 91.79 25.93 91.19 25.93 91.19 25.93 91.19 25.93 91.14 30.41 91.14 30.41 91.14 34.05 91.45 36.92 92.07 39.02 92.07 39.02 91.52 40.13 91.52 40.13 91.52 40.13 90.16 40.13 90.16 40.13 90.16 40.13 89.51 39.52 89.51 39.52 89.54 38.29 89.56 36.9 89.56 35.36 89.56 33.82 89.42 30.53 89.14 25.48 88.86 20.44 88.72 16.68 88.72 14.19 88.72 12.89 89.26 12.23 90.35 12.23 92.06 12.23 93.5 12.61 94.66 13.36 95.83 14.12 96.41 15.19 96.41 16.59 96.41 16.59 96.41 19.49 96.41 19.49 96.41 20.29 96.23 21.01 95.88 21.66 95.53 22.32 95.12 23 94.66 23.72 94.2 24.44 93.94 24.84 93.89 24.92 94.07 25.59 94.38 26.91 94.83 28.87 95.79 33.16 96.85 36.25 98.01 38.13 98.35 38.67 98.52 39.09 98.52 39.39 98.52 39.69 98.42 39.95 98.22 40.16 98.02 40.37 97.75 40.47 97.42 40.47ZM 93.97 18C 93.97 17.25 93.94 16.69 93.89 16.34 93.85 15.98 93.74 15.59 93.58 15.16 93.26 14.27 92.53 13.81 91.38 13.77 91.38 13.77 91.21 14.35 91.21 14.35 91.21 15.48 91.24 17.11 91.31 19.24 91.37 21.37 91.4 22.92 91.4 23.89 92.17 23.56 92.79 22.68 93.26 21.26 93.73 19.84 93.97 18.76 93.97 18ZM 84.86 14.82C 84.86 14.82 82.61 14.53 82.61 14.53 82.61 14.53 82.52 14.96 82.52 14.96 82.52 17.57 82.79 21.47 83.33 26.67 83.87 31.88 84.15 35.79 84.15 38.41 84.15 38.74 83.97 39.02 83.62 39.27 83.27 39.52 82.88 39.64 82.47 39.64 82.47 39.64 81.56 39.1 81.56 39.1 81.56 39.1 81.46 35.93 81.46 35.93 81.46 35.92 81.49 35.45 81.53 34.52 81.41 34.17 81.15 31.06 80.76 25.2 80.36 19.34 80.15 15.76 80.12 14.45 80.06 14.45 79.99 14.45 79.93 14.45 77.28 14.41 75.95 14 75.95 13.22 75.95 12.97 76.13 12.75 76.48 12.59 76.83 12.42 77.18 12.33 77.51 12.33 77.51 12.33 84.17 12.72 84.17 12.72 84.17 12.72 84.96 12.7 84.96 12.7 85.98 12.7 86.49 13.03 86.49 13.69 86.49 14.02 86.33 14.29 85.99 14.5 85.65 14.71 85.28 14.82 84.86 14.82ZM 72.65 38.11C 73.89 38.11 74.52 38.45 74.52 39.12 74.52 39.54 74.3 39.84 73.87 40.03 73.44 40.21 72.95 40.31 72.41 40.31 72.41 40.31 68.27 40.31 68.27 40.31 67.83 40.31 67.44 40.18 67.09 39.94 66.74 39.69 66.56 39.39 66.54 39.04 66.54 39.04 66.54 37.95 66.54 37.95 66.54 37.95 66.23 30.97 66.23 30.97 66.23 30.97 66.56 18.91 66.56 18.91 66.56 18.91 66.3 15.42 66.3 15.42 66.3 13.47 66.99 12.5 68.36 12.5 69.24 12.5 70.44 12.67 71.95 13.01 73.47 13.35 74.23 13.79 74.23 14.33 74.23 14.9 73.75 15.33 72.79 15.62 71.28 15.19 70.04 14.93 69.08 14.84 69.13 15.43 69.15 16.02 69.15 16.61 69.15 16.61 68.94 22.54 68.94 22.54 68.94 22.57 68.98 22.78 69.08 23.19 69.08 23.19 70.83 23.12 70.83 23.12 72.41 23.12 73.2 23.5 73.2 24.25 73.2 24.55 73.06 24.81 72.77 25.03 72.48 25.25 72.12 25.36 71.68 25.36 71.24 25.36 70.76 25.34 70.25 25.28 70.25 25.28 69.01 25.28 69.01 25.28 69.1 26.33 69.15 27.37 69.15 28.41 69.15 28.41 68.94 35.89 68.94 35.89 68.94 37.44 68.97 38.21 69.03 38.21 69.03 38.21 72.65 38.11 72.65 38.11ZM 61.75 38.11C 63 38.11 63.62 38.45 63.62 39.12 63.62 39.54 63.4 39.84 62.97 40.03 62.54 40.21 62.05 40.31 61.51 40.31 61.51 40.31 57.37 40.31 57.37 40.31 56.94 40.31 56.55 40.18 56.19 39.94 55.84 39.69 55.66 39.39 55.64 39.04 55.64 39.04 55.64 37.95 55.64 37.95 55.64 37.95 55.33 30.97 55.33 30.97 55.33 30.97 55.67 18.91 55.67 18.91 55.67 18.91 55.4 15.42 55.4 15.42 55.4 13.47 56.09 12.5 57.46 12.5 58.34 12.5 59.54 12.67 61.06 13.01 62.57 13.35 63.33 13.79 63.33 14.33 63.33 14.9 62.85 15.33 61.89 15.62 60.38 15.19 59.14 14.93 58.18 14.84 58.23 15.43 58.25 16.02 58.25 16.61 58.25 16.61 58.04 22.54 58.04 22.54 58.04 22.57 58.09 22.78 58.18 23.19 58.18 23.19 59.93 23.12 59.93 23.12 61.51 23.12 62.3 23.5 62.3 24.25 62.3 24.55 62.16 24.81 61.87 25.03 61.58 25.25 61.22 25.36 60.78 25.36 60.34 25.36 59.87 25.34 59.36 25.28 59.36 25.28 58.11 25.28 58.11 25.28 58.21 26.33 58.25 27.37 58.25 28.41 58.25 28.41 58.04 35.89 58.04 35.89 58.04 37.44 58.07 38.21 58.13 38.21 58.13 38.21 61.75 38.11 61.75 38.11ZM 51.14 36.88C 50.76 37.54 50.29 38.11 49.75 38.59 48.55 39.64 46.95 40.17 44.94 40.17 44.25 40.17 43.81 39.91 43.62 39.4 43.49 39.01 43.42 38.54 43.4 37.99 43.4 37.99 43.88 29.2 43.88 29.2 43.88 29.2 44.1 16.11 44.1 16.11 44.1 16.11 43.83 13.97 43.83 13.97 43.83 13.97 43.83 13.75 43.83 13.75 43.83 13.17 43.94 12.71 44.16 12.37 44.37 12.04 44.92 11.87 45.81 11.87 46.7 11.87 47.56 12.07 48.41 12.46 49.26 12.85 49.93 13.38 50.42 14.07 51.4 15.41 51.88 16.95 51.88 18.67 51.88 20.39 51.73 21.75 51.43 22.75 51.12 23.75 50.61 24.69 49.89 25.55 51.17 26.58 51.91 28.28 52.1 30.65 52.13 31.19 52.15 31.83 52.16 32.58 52.17 33.34 52.09 34.08 51.93 34.8 51.77 35.53 51.51 36.22 51.14 36.88ZM 47.07 13.79C 46.69 14.49 46.49 15.97 46.49 18.22 46.49 18.22 46.49 24.38 46.49 24.38 48.22 24.34 49.08 22.59 49.08 19.15 49.08 15.71 48.41 13.92 47.07 13.79ZM 49.5 32.16C 49.48 31.72 49.4 31.17 49.27 30.53 49.14 29.88 48.98 29.32 48.79 28.83 48.31 27.65 47.57 26.97 46.57 26.8 46.42 28.57 46.35 30.66 46.35 33.05 46.35 33.05 46.18 36.01 46.18 36.01 46.18 36.01 46.23 36.21 46.23 36.21 46.23 36.21 46.23 38.07 46.23 38.07 47.33 37.86 48.16 37.31 48.71 36.43 49.26 35.55 49.54 34.73 49.54 33.97 49.54 33.21 49.52 32.6 49.5 32.16Z" fill="rgb(62,59,56)"/></g></svg>